# xmcd CD database file
#
# Track frame offsets:
#	150
#	13648
#	25975
#	37998
#	49856
#	62865
#	77706
#	93831
#	105024
#	118540
#	129939
#	145500
#
# Disc length: 2176 seconds
#
# Revision: 3
# Processed by: cddbd v1.5.2PL0 Copyright (c) Steve Scherf et al.
# Submitted via: CDex 1.70beta2
#
DISCID=88087e0c
DTITLE=Milionário and José Rico - Vol.1
DYEAR=1973
DGENRE=sertanejo
TTITLE0=DE LONGE TAMBEM SE AMA
TTITLE1=CORAÇÃO DE PEDRA
TTITLE2=NEM ROMEU NEM JULIETA
TTITLE3=AUSENTE DE TI
TTITLE4=PARANÁ QUERIDO
TTITLE5=QUARTO TRISTE
TTITLE6=TORMENTO DE SAUDADES
TTITLE7=TRES PEDIDOS
TTITLE8=A SUA VOLTA
TTITLE9=INVERSÃO DE VALORES
TTITLE10=CORAÇÃO
TTITLE11=PROCURA DE UMA FLOR
EXTD=YEAR: 1973
EXTT0=
EXTT1=
EXTT2=
EXTT3=
EXTT4=
EXTT5=
EXTT6=
EXTT7=
EXTT8=
EXTT9=
EXTT10=
EXTT11=
PLAYORDER=
